<?xml version="1.0" encoding="UTF-8"?>
<svg width="16px" height="16px" viewBox="0 0 16 16" version="1.1" xmlns="http://www.w3.org/2000/svg" xmlns:xlink="http://www.w3.org/1999/xlink">
    <!-- Generator: Sketch 64 (93537) - https://sketch.com -->
    <title>edit_normal</title>
    <desc>Created with Sketch.</desc>
    <g id="版本更新" stroke="none" stroke-width="1" fill="none" fill-rule="evenodd">
        <g id="房间详情管理员视角" transform="translate(-603.000000, -133.000000)" fill="#FFFFFF">
            <g id="编组-20备份" transform="translate(310.000000, 89.000000)">
                <g id="编组-22" transform="translate(20.000000, 35.000000)">
                    <g id="编组-48">
                        <g id="编辑" transform="translate(273.000000, 9.000000)">
                            <path d="M2.9542345,2.82857162 C2.15420572,2.82857162 1.5000746,3.47861585 1.5000746,4.28271067 L1.5000746,13.0457865 C1.5000746,13.8457945 2.15420572,14.4958596 2.9542345,14.4958596 L11.7213764,14.4958596 C12.5213844,14.4958596 13.1714494,13.8457945 13.1714494,13.0457865 L13.1714494,7.2870306 L14.6758405,5.83289154 L14.6758405,13.5790418 C14.6758405,14.9166212 13.542376,16.0000004 12.2047758,16.0000004 L2.42095844,16.0000004 C1.08346245,16.0000004 -2.05078095e-07,14.9166212 -2.05078095e-07,13.5790418 L-2.05078095e-07,3.8993983 C-2.05078095e-07,2.5619023 1.08346245,1.32847595 2.42095844,1.32847595 L10.1671295,1.32847595 L8.71705651,2.82865502 L2.9542345,2.82865502 L2.9542345,2.82857162 Z M8.3170421,9.94974106 L5.06698774,10.8705415 L5.99617046,7.64125519 L8.3170421,9.94974106 L8.3170421,9.94974106 Z M8.64219977,9.62475021 L6.31701186,7.32041378 L11.4255359,2.24529376 L13.7507238,4.54946339 L8.64219977,9.62475021 L8.64219977,9.62475021 Z M14.8007825,3.50778704 L14.104865,4.19955505 L11.7797814,1.89106917 L12.4756154,1.19930116 C12.7340484,0.945163574 13.1381288,0.932548442 13.3757312,1.17021338 L14.8298702,2.6119041 C15.0674518,2.84933967 15.0548366,3.25364947 14.8007825,3.50778704 L14.8007825,3.50778704 Z" id="形状"></path>
                        </g>
                    </g>
                </g>
            </g>
        </g>
    </g>
</svg>